<svg width="188" height="45" fill="none" xmlns="http://www.w3.org/2000/svg"><path d="M187.7 37v7.7h-20.8V0h20.8v7.6h-13.2v10.8H185v7.7h-10.5V37h13.2ZM154.9 0h7.6v44.7h-7.6v-22l-3 11.4h-7.4l-3-11.4v22h-7.6V0h7.6l6.8 21.6L154.9 0ZM123 7.6h-5.5v29.3h5.5V7.6Zm3-7.6c2.5 0 4.7 2.1 4.7 4.7V40c0 2.6-2.2 4.7-4.7 4.7h-11.4c-2.6 0-4.7-2.2-4.7-4.7V4.7c0-2.6 2.1-4.7 4.7-4.7H126ZM98 28.2l7.7-1.8V40c0 2.6-2.2 4.7-4.7 4.7H89.6c-2.6 0-4.7-2.2-4.7-4.7V4.7C84.9 2.1 87 0 89.6 0H101c2.5 0 4.7 2.1 4.7 4.7v9.1L98 15.6v-8h-5.5v29.3H98v-8.7ZM81.2 37v7.7H63V0h7.6v37h10.6Zm-21.4 0v7.7H39V0h20.8v7.6H46.6v10.8h10.5v7.7H46.6V37h13.2ZM27.6 0h7.7L34 44.7H19.5l-2-18.5-2 18.5H1L0 0h7.6l.6 37H9l4.8-37h7.6l4.9 37h.8l.5-37Z" fill="#81B3D3"/></svg>